<?xml version="1.0" encoding="UTF-8" standalone="no"?>
<!DOCTYPE svg PUBLIC "-//W3C//DTD SVG 1.1//EN"
 "http://www.w3.org/Graphics/SVG/1.1/DTD/svg11.dtd">
<!-- Generated by graphviz version 2.26.3 (20100126.1600)
 -->
<!-- Title: loopy_kernel Pages: 1 -->
<svg width="252pt" height="268pt"
 viewBox="0.00 0.00 252.00 268.00" xmlns="http://www.w3.org/2000/svg" xmlns:xlink="http://www.w3.org/1999/xlink">
<g id="graph1" class="graph" transform="scale(1 1) rotate(0) translate(4 264)">
<title>loopy_kernel</title>
<polygon fill="white" stroke="white" points="-4,5 -4,-264 249,-264 249,5 -4,5"/>
<g id="graph2" class="cluster"><title>cluster_i</title>
<polygon fill="none" stroke="black" points="32,-134 32,-252 212,-252 212,-134 32,-134"/>
<text text-anchor="middle" x="122" y="-235.4" font-family="Times Roman,serif" font-size="14.00">i</text>
</g>
<g id="graph3" class="cluster"><title>cluster_j</title>
<polygon fill="none" stroke="black" points="40,-142 40,-219 204,-219 204,-142 40,-142"/>
<text text-anchor="middle" x="122" y="-202.4" font-family="Times Roman,serif" font-size="14.00">j</text>
</g>
<g id="graph4" class="cluster"><title>cluster_ii</title>
<polygon fill="none" stroke="black" points="8,-8 8,-126 236,-126 236,-8 8,-8"/>
<text text-anchor="middle" x="122" y="-109.4" font-family="Times Roman,serif" font-size="14.00">ii</text>
</g>
<g id="graph5" class="cluster"><title>cluster_jj</title>
<polygon fill="none" stroke="black" points="16,-16 16,-93 228,-93 228,-16 16,-16"/>
<text text-anchor="middle" x="122" y="-76.4" font-family="Times Roman,serif" font-size="14.00">jj</text>
</g>
<!-- transpose -->
<g id="node1" class="node"><title>transpose</title>
<a xlink:title="transpose">
<polygon fill="none" stroke="black" points="196,-186 48,-186 48,-150 196,-150 196,-186"/>
<text text-anchor="middle" x="122" y="-163.9" font-family="Times Roman,serif" font-size="14.00">out[(j, i)] &lt;&#45; a[(i, j)]</text>
</a>
</g>
<!-- insn -->
<g id="node2" class="node"><title>insn</title>
<a xlink:title="insn">
<polygon fill="none" stroke="black" points="220,-60 24,-60 24,-24 220,-24 220,-60"/>
<text text-anchor="middle" x="122" y="-37.9" font-family="Times Roman,serif" font-size="14.00">out[(ii, jj)] &lt;&#45; 2*out[(ii, jj)]</text>
</a>
</g>
<!-- transpose&#45;&gt;insn -->
<g id="edge2" class="edge"><title>transpose&#45;&gt;insn</title>
<path fill="none" stroke="black" d="M122,-149.947C122,-129.082 122,-94.4928 122,-70.1006"/>
<polygon fill="black" stroke="black" points="125.5,-70.0192 122,-60.0192 118.5,-70.0193 125.5,-70.0192"/>
</g>
</g>
</svg>
