<?xml version="1.0" encoding="UTF-8" standalone="no"?>
<!DOCTYPE svg PUBLIC "-//W3C//DTD SVG 1.1//EN"
 "http://www.w3.org/Graphics/SVG/1.1/DTD/svg11.dtd">
<!-- Generated by graphviz version 2.26.3 (20100126.1600)
 -->
<!-- Title: loopy_kernel Pages: 1 -->
<svg width="236pt" height="214pt"
 viewBox="0.00 0.00 236.00 214.00" xmlns="http://www.w3.org/2000/svg" xmlns:xlink="http://www.w3.org/1999/xlink">
<g id="graph1" class="graph" transform="scale(1 1) rotate(0) translate(4 210)">
<title>loopy_kernel</title>
<polygon fill="white" stroke="white" points="-4,5 -4,-210 233,-210 233,5 -4,5"/>
<g id="graph2" class="cluster"><title>cluster_i</title>
<polygon fill="none" stroke="black" points="8,-8 8,-198 220,-198 220,-8 8,-8"/>
<text text-anchor="middle" x="114" y="-181.4" font-family="Times Roman,serif" font-size="14.00">i</text>
</g>
<g id="graph3" class="cluster"><title>cluster_j</title>
<polygon fill="none" stroke="black" points="16,-16 16,-165 212,-165 212,-16 16,-16"/>
<text text-anchor="middle" x="114" y="-148.4" font-family="Times Roman,serif" font-size="14.00">j</text>
</g>
<!-- transpose -->
<g id="node1" class="node"><title>transpose</title>
<a xlink:title="transpose">
<polygon fill="none" stroke="black" points="188,-132 40,-132 40,-96 188,-96 188,-132"/>
<text text-anchor="middle" x="114" y="-109.9" font-family="Times Roman,serif" font-size="14.00">out[(j, i)] &lt;&#45; a[(i, j)]</text>
</a>
</g>
<!-- insn -->
<g id="node2" class="node"><title>insn</title>
<a xlink:title="insn">
<polygon fill="none" stroke="black" points="204,-60 24,-60 24,-24 204,-24 204,-60"/>
<text text-anchor="middle" x="114" y="-37.9" font-family="Times Roman,serif" font-size="14.00">out[(i, j)] &lt;&#45; 2*out[(i, j)]</text>
</a>
</g>
<!-- transpose&#45;&gt;insn -->
<g id="edge2" class="edge"><title>transpose&#45;&gt;insn</title>
<path fill="none" stroke="black" d="M114,-95.8314C114,-88.131 114,-78.9743 114,-70.4166"/>
<polygon fill="black" stroke="black" points="117.5,-70.4132 114,-60.4133 110.5,-70.4133 117.5,-70.4132"/>
</g>
</g>
</svg>
